<svg width="360" height="180" viewBox="0 0 180 76" xmlns="http://www.w3.org/2000/svg">
  <!-- Background Rect -->
  <rect width="100%" height="100%" id="background-rect"/>

  <!-- Main Path for Logo (Blue Shades) -->
  <path id="logo-path-1" fill-rule="evenodd" clip-rule="evenodd" d="M78 69.9993H36.925C32.64 69.9993 28.68 67.8884 26.535 64.4566L26 63.602L25.465 62.7429C23.32 59.3157 19.36 57.2002 15.07 57.2002H0L8 44.4011H23.07C25.215 44.4011 27.275 44.9277 29.07 45.8838C30.865 46.8445 32.395 48.2302 33.465 49.9438L34 50.7984L34.535 51.6575C36.68 55.0893 40.64 57.2002 44.925 57.2002H70L74 63.602L78 69.9993Z"/>
  <path id="logo-path-2" fill-rule="evenodd" clip-rule="evenodd" d="M77.9934 70L37.9985 6L30 18.8L61.9989 70H77.9934Z"/>
  <path id="logo-path-3" fill-rule="evenodd" clip-rule="evenodd" d="M45.9947 18.7991L41.9947 25.2009L37.9947 31.6028L33.9947 38L29.9947 44.4019L29.0697 45.8845C27.2747 44.9284 25.2147 44.4019 23.0697 44.4019H8.21973C11.7947 44.4019 15.0947 42.642 16.8797 39.7829L17.9947 38L21.9947 31.6028L25.9947 25.2009L29.9947 18.7991L33.9947 12.4018L37.9947 6L41.9947 12.4018L45.9947 18.7991Z"/>

  <!-- Text -->
  <text id="text-open" x="90" y="40" font-family="Lato, sans-serif" font-size="24" letter-spacing="0.5">open</text>
  <text id="text-comply" x="90" y="65" font-family="Lato, sans-serif" font-size="24" letter-spacing="0.5">comply</text>

  <!-- Gradients -->
  <defs>
    <linearGradient id="paint0_linear_8612_49214" x1="7800" y1="1483.58" x2="4042.37" y2="707.509" gradientUnits="userSpaceOnUse">
      <stop offset="0%" stop-color="#2563EA"/>
      <stop offset="100%" stop-color="#014BFA"/>
    </linearGradient>
    <linearGradient id="paint1_linear_8612_49214" x1="1595.35" y1="6.00001" x2="2699.18" y2="3042.53" gradientUnits="userSpaceOnUse">
      <stop offset="0%" stop-color="#2563EA"/>
      <stop offset="100%" stop-color="#014BFA"/>
    </linearGradient>
    <linearGradient id="paint2_linear_8612_49214" x1="3170.4" y1="4816.27" x2="3170.4" y2="6" gradientUnits="userSpaceOnUse">
      <stop offset="0%" stop-color="#1C155C"/>
      <stop offset="39.942%" stop-color="#014BFA"/>
      <stop offset="99.99%" stop-color="#014BFA"/>
      <stop offset="100%" stop-color="#FD7810"/>
    </linearGradient>

    <!-- Styles for Light and Dark Modes -->
    <style>
      /* Default Light Mode Styles */
      #background-rect {
        fill: #FFFFFF;
      }
      #logo-path-1 {
        fill: url(#paint0_linear_8612_49214);
      }
      #logo-path-2 {
        fill: url(#paint1_linear_8612_49214);
      }
      #logo-path-3 {
        fill: url(#paint2_linear_8612_49214);
      }
      #text-open, #text-comply {
        fill: #0D2239;
      }

      /* Dark Mode Styles */
      @media (prefers-color-scheme: dark) {
        #background-rect {
          fill: #1A1A1A; /* Dark background */
        }
        #logo-path-1 {
          fill: url(#paint0_linear_dark);
        }
        #logo-path-2 {
          fill: url(#paint1_linear_dark);
        }
        #logo-path-3 {
          fill: url(#paint2_linear_dark);
        }
        #text-open, #text-comply {
          fill: #FFFFFF; /* Light text */
        }
      }
    </style>

    <!-- Dark Mode Gradients -->
    <linearGradient id="paint0_linear_dark" x1="7800" y1="1483.58" x2="4042.37" y2="707.509" gradientUnits="userSpaceOnUse">
      <stop offset="0%" stop-color="#4F46E5"/> <!-- Indigo-600 -->
      <stop offset="100%" stop-color="#1E40AF"/> <!-- Blue-800 -->
    </linearGradient>
    <linearGradient id="paint1_linear_dark" x1="1595.35" y1="6.00001" x2="2699.18" y2="3042.53" gradientUnits="userSpaceOnUse">
      <stop offset="0%" stop-color="#4F46E5"/> <!-- Indigo-600 -->
      <stop offset="100%" stop-color="#1E40AF"/> <!-- Blue-800 -->
    </linearGradient>
    <linearGradient id="paint2_linear_dark" x1="3170.4" y1="4816.27" x2="3170.4" y2="6" gradientUnits="userSpaceOnUse">
      <stop offset="0%" stop-color="#312E81"/> <!-- Dark Purple -->
      <stop offset="39.942%" stop-color="#1E40AF"/> <!-- Blue-800 -->
      <stop offset="99.99%" stop-color="#1E40AF"/> <!-- Blue-800 -->
      <stop offset="100%" stop-color="#FDBA74"/> <!-- Orange-400 -->
    </linearGradient>
  </defs>
</svg>
