<?xml version="1.0" encoding="UTF-8"?>
<svg version="1.1" xmlns="http://www.w3.org/2000/svg" width="512" height="512">
<path d="M0 0 C3.47314458 0.01404548 6.94629159 0.02662094 10.41944337 0.03874874 C22.58809056 0.08147127 34.75669403 0.13061016 46.92529321 0.18527126 C58.19197495 0.23568652 69.45863742 0.27082549 80.72539419 0.29920506 C90.47920467 0.32452388 100.23293222 0.36116759 109.98667103 0.40629077 C115.77777412 0.43286358 121.56880401 0.4549762 127.35996079 0.46530819 C132.79820339 0.47534859 138.23620907 0.49964096 143.67434907 0.53424168 C145.65059357 0.54450041 147.6268709 0.54995164 149.60314202 0.54980946 C170.08335499 0.55435504 190.59991991 2.9210037 210.2341311 8.99825954 C210.2341311 9.65825954 210.2341311 10.31825954 210.2341311 10.99825954 C210.8941311 11.08075954 211.5541311 11.16325954 212.2341311 11.24825954 C216.22452273 12.24585745 219.61962753 14.06992637 223.2341311 15.99825954 C223.2341311 16.65825954 223.2341311 17.31825954 223.2341311 17.99825954 C223.9766311 18.10138454 224.7191311 18.20450954 225.4841311 18.31075954 C228.431483 19.04759752 230.01796183 19.94625097 232.2341311 21.99825954 C232.2341311 22.65825954 232.2341311 23.31825954 232.2341311 23.99825954 C233.2241311 23.99825954 234.2141311 23.99825954 235.2341311 23.99825954 C236.68334985 25.29513454 236.68334985 25.29513454 238.2341311 26.99825954 C239.49935811 28.08813526 240.77059785 29.17105593 242.0466311 30.24825954 C251.35198205 38.3518124 251.35198205 38.3518124 253.2341311 43.99825954 C253.8941311 44.32825954 254.5541311 44.65825954 255.2341311 44.99825954 C256.23010577 46.69141649 257.22023938 48.38863503 258.1638186 50.11154079 C259.31568827 52.20918094 259.31568827 52.20918094 261.2341311 54.87325954 C274.22980027 75.17899263 274.84376232 100.84408432 275.09228539 124.11764431 C275.14924093 126.9144842 275.14924093 126.9144842 275.73463941 129.2596426 C276.31727063 132.45409761 276.36323166 135.44865707 276.36784387 138.69674587 C276.37010942 139.35782691 276.37237498 140.01890795 276.37470919 140.70002174 C276.38102554 142.91012933 276.38022116 145.12017519 276.37939477 147.33029079 C276.38238905 148.9198912 276.3857922 150.50949089 276.38957238 152.09908962 C276.39842164 156.42866426 276.4007518 160.75821912 276.40138817 165.08780193 C276.40210187 167.81848508 276.40424294 170.54916332 276.40688539 173.27984524 C276.41616448 182.88520527 276.4202199 192.49055144 276.41943383 202.09591579 C276.41890726 209.94489532 276.42581034 217.79382418 276.43994164 225.64279079 C276.57031591 300.12741783 276.57031591 300.12741783 275.63945985 329.16949368 C275.57188542 331.28064919 275.51022438 333.39200597 275.4557097 335.50353909 C274.81142945 359.07633335 271.78348811 386.60702842 257.2341311 405.99825954 C256.19120851 407.97621618 255.1743105 409.96945135 254.2341311 411.99825954 C253.5741311 411.99825954 252.9141311 411.99825954 252.2341311 411.99825954 C252.2341311 412.65825954 252.2341311 413.31825954 252.2341311 413.99825954 C251.5741311 413.99825954 250.9141311 413.99825954 250.2341311 413.99825954 C250.1516311 414.55513454 250.0691311 415.11200954 249.9841311 415.68575954 C248.65027042 419.79849663 245.48461992 423.19101919 242.2341311 425.99825954 C241.5741311 425.99825954 240.9141311 425.99825954 240.2341311 425.99825954 C239.9041311 426.98825954 239.5741311 427.97825954 239.2341311 428.99825954 C234.77698824 432.99825954 234.77698824 432.99825954 232.2341311 432.99825954 C232.2341311 433.65825954 232.2341311 434.31825954 232.2341311 434.99825954 C230.9141311 435.32825954 229.5941311 435.65825954 228.2341311 435.99825954 C228.2341311 436.65825954 228.2341311 437.31825954 228.2341311 437.99825954 C222.07586251 442.55612702 215.12843443 445.71867775 208.2341311 448.99825954 C207.5328811 449.33212673 206.8316311 449.66599392 206.1091311 450.00997829 C173.97208752 463.56779355 130.29525373 458.16084209 96.12062073 458.16551661 C93.14385114 458.16623786 90.16708588 458.16839191 87.19031739 458.17101383 C76.72567103 458.18020755 66.26103722 458.18435641 55.79638696 458.18356228 C46.17059625 458.18296352 36.54486193 458.19349133 26.91908544 458.20930594 C18.54770195 458.22255028 10.1763365 458.22773922 1.80494267 458.22710687 C-3.14731937 458.22685672 -8.09953115 458.22943038 -13.05178237 458.24028492 C-32.78779093 458.28044829 -52.47427737 458.09567415 -72.18847632 457.10104275 C-72.99426647 457.06162512 -73.80005661 457.0222075 -74.63026464 456.9815954 C-90.96065461 456.16088367 -107.66660098 454.78931784 -122.7658689 447.99825954 C-122.7658689 447.33825954 -122.7658689 446.67825954 -122.7658689 445.99825954 C-123.4464939 445.89513454 -124.1271189 445.79200954 -124.8283689 445.68575954 C-129.97515587 444.48119238 -134.11276475 442.81921226 -137.7658689 438.99825954 C-138.81120352 438.13908493 -139.87179755 437.29819767 -140.9455564 436.47482204 C-141.8446775 435.77872829 -141.8446775 435.77872829 -142.76196265 435.06857204 C-144.00588355 434.11170981 -145.25066403 433.15596391 -146.49633765 432.20138454 C-150.18482893 429.34221144 -153.63182639 426.46596438 -156.7658689 422.99825954 C-156.7658689 422.33825954 -156.7658689 421.67825954 -156.7658689 420.99825954 C-157.4258689 420.99825954 -158.0858689 420.99825954 -158.7658689 420.99825954 C-160.44576571 418.92860251 -161.9921641 416.86669914 -163.5158689 414.68575954 C-164.18803443 413.73213528 -164.18803443 413.73213528 -164.87377906 412.75924587 C-168.60558158 407.38510009 -171.86405701 401.86616397 -174.7658689 395.99825954 C-175.13196265 395.28798611 -175.4980564 394.57771267 -175.8752439 393.84591579 C-185.39529739 374.18334379 -186.10961953 351.38761743 -186.6643064 330.02902126 C-186.830368 325.07351954 -187.22884428 320.14677231 -187.6799314 315.20919704 C-187.7658689 311.99825954 -187.7658689 311.99825954 -187.27734351 308.39053249 C-186.40485789 300.80060856 -186.64388786 293.13935789 -186.66821265 285.51095486 C-186.67013429 283.74076791 -186.67159693 281.97058041 -186.6726377 280.20039272 C-186.67578919 276.39948668 -186.68204407 272.59860309 -186.69070411 268.79770565 C-186.70429665 262.76753315 -186.7101364 256.73736796 -186.71484351 250.70718288 C-186.72686406 236.80300492 -186.74883608 222.89884609 -186.77107215 208.99468136 C-186.79133136 196.27682814 -186.80939649 183.55898177 -186.81928706 170.84111571 C-186.82341887 165.83885196 -186.82966783 160.83661022 -186.8410337 155.83435726 C-186.96138736 102.29337216 -186.96138736 102.29337216 -183.9533689 87.43575954 C-183.77378638 86.51577175 -183.59420386 85.59578396 -183.40917945 84.64791775 C-180.16535674 68.59078219 -173.66395653 52.49118926 -162.7658689 39.99825954 C-162.1058689 39.99825954 -161.4458689 39.99825954 -160.7658689 39.99825954 C-160.6730564 39.13200954 -160.6730564 39.13200954 -160.5783689 38.24825954 C-159.44716101 35.11568383 -157.38639089 33.96365104 -154.7658689 31.99825954 C-154.4358689 31.33825954 -154.1058689 30.67825954 -153.7658689 29.99825954 C-153.1058689 29.99825954 -152.4458689 29.99825954 -151.7658689 29.99825954 C-151.7658689 29.33825954 -151.7658689 28.67825954 -151.7658689 27.99825954 C-150.7758689 27.99825954 -149.7858689 27.99825954 -148.7658689 27.99825954 C-148.7658689 27.33825954 -148.7658689 26.67825954 -148.7658689 25.99825954 C-148.1058689 25.99825954 -147.4458689 25.99825954 -146.7658689 25.99825954 C-146.7658689 25.33825954 -146.7658689 24.67825954 -146.7658689 23.99825954 C-144.5002439 22.30685329 -144.5002439 22.30685329 -141.5158689 20.43575954 C-140.54133765 19.81572048 -139.5668064 19.19568142 -138.5627439 18.55685329 C-136.19767282 17.2388877 -134.40396133 16.45678513 -131.7658689 15.99825954 C-131.7658689 15.33825954 -131.7658689 14.67825954 -131.7658689 13.99825954 C-128.11317582 12.29948868 -124.44522704 10.63845534 -120.7658689 8.99825954 C-120.12262671 8.70306423 -119.47938453 8.40786892 -118.81665015 8.10372829 C-84.15259407 -6.46296494 -36.65158001 -0.15093408 0 0 Z " fill="#201F21" transform="translate(211.76586890220642,21.00174045562744)"/>
<path d="M0 0 C3.47314458 0.01404548 6.94629159 0.02662094 10.41944337 0.03874874 C22.58809056 0.08147127 34.75669403 0.13061016 46.92529321 0.18527126 C58.19197495 0.23568652 69.45863742 0.27082549 80.72539419 0.29920506 C90.47920467 0.32452388 100.23293222 0.36116759 109.98667103 0.40629077 C115.77777412 0.43286358 121.56880401 0.4549762 127.35996079 0.46530819 C132.79820339 0.47534859 138.23620907 0.49964096 143.67434907 0.53424168 C145.65059357 0.54450041 147.6268709 0.54995164 149.60314202 0.54980946 C170.08335499 0.55435504 190.59991991 2.9210037 210.2341311 8.99825954 C210.2341311 9.65825954 210.2341311 10.31825954 210.2341311 10.99825954 C210.8941311 11.08075954 211.5541311 11.16325954 212.2341311 11.24825954 C216.22452273 12.24585745 219.61962753 14.06992637 223.2341311 15.99825954 C223.2341311 16.65825954 223.2341311 17.31825954 223.2341311 17.99825954 C223.9766311 18.10138454 224.7191311 18.20450954 225.4841311 18.31075954 C228.431483 19.04759752 230.01796183 19.94625097 232.2341311 21.99825954 C232.2341311 22.65825954 232.2341311 23.31825954 232.2341311 23.99825954 C233.2241311 23.99825954 234.2141311 23.99825954 235.2341311 23.99825954 C236.68334985 25.29513454 236.68334985 25.29513454 238.2341311 26.99825954 C239.49935811 28.08813526 240.77059785 29.17105593 242.0466311 30.24825954 C251.35198205 38.3518124 251.35198205 38.3518124 253.2341311 43.99825954 C253.8941311 44.32825954 254.5541311 44.65825954 255.2341311 44.99825954 C256.23010577 46.69141649 257.22023938 48.38863503 258.1638186 50.11154079 C259.31568827 52.20918094 259.31568827 52.20918094 261.2341311 54.87325954 C274.22980027 75.17899263 274.84376232 100.84408432 275.09228539 124.11764431 C275.14924093 126.9144842 275.14924093 126.9144842 275.73463941 129.2596426 C276.31727063 132.45409761 276.36323166 135.44865707 276.36784387 138.69674587 C276.37010942 139.35782691 276.37237498 140.01890795 276.37470919 140.70002174 C276.38102554 142.91012933 276.38022116 145.12017519 276.37939477 147.33029079 C276.38238905 148.9198912 276.3857922 150.50949089 276.38957238 152.09908962 C276.39842164 156.42866426 276.4007518 160.75821912 276.40138817 165.08780193 C276.40210187 167.81848508 276.40424294 170.54916332 276.40688539 173.27984524 C276.41616448 182.88520527 276.4202199 192.49055144 276.41943383 202.09591579 C276.41890726 209.94489532 276.42581034 217.79382418 276.43994164 225.64279079 C276.57031591 300.12741783 276.57031591 300.12741783 275.63945985 329.16949368 C275.57188542 331.28064919 275.51022438 333.39200597 275.4557097 335.50353909 C274.81142945 359.07633335 271.78348811 386.60702842 257.2341311 405.99825954 C256.19120851 407.97621618 255.1743105 409.96945135 254.2341311 411.99825954 C253.5741311 411.99825954 252.9141311 411.99825954 252.2341311 411.99825954 C252.2341311 412.65825954 252.2341311 413.31825954 252.2341311 413.99825954 C251.5741311 413.99825954 250.9141311 413.99825954 250.2341311 413.99825954 C250.1516311 414.55513454 250.0691311 415.11200954 249.9841311 415.68575954 C248.65027042 419.79849663 245.48461992 423.19101919 242.2341311 425.99825954 C241.5741311 425.99825954 240.9141311 425.99825954 240.2341311 425.99825954 C239.9041311 426.98825954 239.5741311 427.97825954 239.2341311 428.99825954 C234.77698824 432.99825954 234.77698824 432.99825954 232.2341311 432.99825954 C232.2341311 433.65825954 232.2341311 434.31825954 232.2341311 434.99825954 C230.9141311 435.32825954 229.5941311 435.65825954 228.2341311 435.99825954 C228.2341311 436.65825954 228.2341311 437.31825954 228.2341311 437.99825954 C222.07586251 442.55612702 215.12843443 445.71867775 208.2341311 448.99825954 C207.5328811 449.33212673 206.8316311 449.66599392 206.1091311 450.00997829 C173.97208752 463.56779355 130.29525373 458.16084209 96.12062073 458.16551661 C93.14385114 458.16623786 90.16708588 458.16839191 87.19031739 458.17101383 C76.72567103 458.18020755 66.26103722 458.18435641 55.79638696 458.18356228 C46.17059625 458.18296352 36.54486193 458.19349133 26.91908544 458.20930594 C18.54770195 458.22255028 10.1763365 458.22773922 1.80494267 458.22710687 C-3.14731937 458.22685672 -8.09953115 458.22943038 -13.05178237 458.24028492 C-32.78779093 458.28044829 -52.47427737 458.09567415 -72.18847632 457.10104275 C-72.99426647 457.06162512 -73.80005661 457.0222075 -74.63026464 456.9815954 C-90.96065461 456.16088367 -107.66660098 454.78931784 -122.7658689 447.99825954 C-122.7658689 447.33825954 -122.7658689 446.67825954 -122.7658689 445.99825954 C-123.4464939 445.89513454 -124.1271189 445.79200954 -124.8283689 445.68575954 C-129.97515587 444.48119238 -134.11276475 442.81921226 -137.7658689 438.99825954 C-138.81120352 438.13908493 -139.87179755 437.29819767 -140.9455564 436.47482204 C-141.8446775 435.77872829 -141.8446775 435.77872829 -142.76196265 435.06857204 C-144.00588355 434.11170981 -145.25066403 433.15596391 -146.49633765 432.20138454 C-150.18482893 429.34221144 -153.63182639 426.46596438 -156.7658689 422.99825954 C-156.7658689 422.33825954 -156.7658689 421.67825954 -156.7658689 420.99825954 C-157.4258689 420.99825954 -158.0858689 420.99825954 -158.7658689 420.99825954 C-160.44576571 418.92860251 -161.9921641 416.86669914 -163.5158689 414.68575954 C-164.18803443 413.73213528 -164.18803443 413.73213528 -164.87377906 412.75924587 C-168.60558158 407.38510009 -171.86405701 401.86616397 -174.7658689 395.99825954 C-175.13196265 395.28798611 -175.4980564 394.57771267 -175.8752439 393.84591579 C-185.39529739 374.18334379 -186.10961953 351.38761743 -186.6643064 330.02902126 C-186.830368 325.07351954 -187.22884428 320.14677231 -187.6799314 315.20919704 C-187.7658689 311.99825954 -187.7658689 311.99825954 -187.27734351 308.39053249 C-186.40485789 300.80060856 -186.64388786 293.13935789 -186.66821265 285.51095486 C-186.67013429 283.74076791 -186.67159693 281.97058041 -186.6726377 280.20039272 C-186.67578919 276.39948668 -186.68204407 272.59860309 -186.69070411 268.79770565 C-186.70429665 262.76753315 -186.7101364 256.73736796 -186.71484351 250.70718288 C-186.72686406 236.80300492 -186.74883608 222.89884609 -186.77107215 208.99468136 C-186.79133136 196.27682814 -186.80939649 183.55898177 -186.81928706 170.84111571 C-186.82341887 165.83885196 -186.82966783 160.83661022 -186.8410337 155.83435726 C-186.96138736 102.29337216 -186.96138736 102.29337216 -183.9533689 87.43575954 C-183.77378638 86.51577175 -183.59420386 85.59578396 -183.40917945 84.64791775 C-180.16535674 68.59078219 -173.66395653 52.49118926 -162.7658689 39.99825954 C-162.1058689 39.99825954 -161.4458689 39.99825954 -160.7658689 39.99825954 C-160.6730564 39.13200954 -160.6730564 39.13200954 -160.5783689 38.24825954 C-159.44716101 35.11568383 -157.38639089 33.96365104 -154.7658689 31.99825954 C-154.4358689 31.33825954 -154.1058689 30.67825954 -153.7658689 29.99825954 C-153.1058689 29.99825954 -152.4458689 29.99825954 -151.7658689 29.99825954 C-151.7658689 29.33825954 -151.7658689 28.67825954 -151.7658689 27.99825954 C-150.7758689 27.99825954 -149.7858689 27.99825954 -148.7658689 27.99825954 C-148.7658689 27.33825954 -148.7658689 26.67825954 -148.7658689 25.99825954 C-148.1058689 25.99825954 -147.4458689 25.99825954 -146.7658689 25.99825954 C-146.7658689 25.33825954 -146.7658689 24.67825954 -146.7658689 23.99825954 C-144.5002439 22.30685329 -144.5002439 22.30685329 -141.5158689 20.43575954 C-140.54133765 19.81572048 -139.5668064 19.19568142 -138.5627439 18.55685329 C-136.19767282 17.2388877 -134.40396133 16.45678513 -131.7658689 15.99825954 C-131.7658689 15.33825954 -131.7658689 14.67825954 -131.7658689 13.99825954 C-128.11317582 12.29948868 -124.44522704 10.63845534 -120.7658689 8.99825954 C-120.12262671 8.70306423 -119.47938453 8.40786892 -118.81665015 8.10372829 C-84.15259407 -6.46296494 -36.65158001 -0.15093408 0 0 Z M-117.7658689 18.99825954 C-118.80485328 19.44040798 -119.84383765 19.88255642 -120.9143064 20.33810329 C-144.12910269 31.11000748 -161.42763783 51.49959611 -170.7658689 74.99825954 C-177.01136402 93.12003081 -177.20684465 113.06408463 -177.12231421 131.99874783 C-177.12310733 134.32207218 -177.12521141 136.64539638 -177.12850928 138.96871853 C-177.13358936 145.2072119 -177.12022256 151.4455369 -177.10298228 157.68400335 C-177.08782915 164.23283255 -177.08911778 170.78166063 -177.08831763 177.33050442 C-177.08516071 188.30295488 -177.06983957 199.27534505 -177.0471189 210.24777126 C-177.02377328 221.53032868 -177.00967953 232.81284614 -177.00610328 244.09542751 C-177.00588051 244.79314507 -177.00565774 245.49086262 -177.00542822 246.20972313 C-177.00498561 247.61540392 -177.00454359 249.02108471 -177.00410216 250.42676549 C-177.00388259 251.12023358 -177.00366302 251.81370167 -177.0034368 252.52818394 C-177.00322082 253.21995618 -177.00300483 253.91172841 -177.0027823 254.62446345 C-176.9988627 266.05775309 -176.98617283 277.4910346 -176.97308993 288.92431688 C-176.96899053 292.82177836 -176.96606546 296.71923945 -176.96329474 300.61670208 C-176.95841191 306.72193565 -176.94822584 312.82713845 -176.93385673 318.93235683 C-176.92932625 321.17579146 -176.9264933 323.41923023 -176.92544913 325.66266918 C-176.92370917 328.71492224 -176.91584196 331.76709777 -176.9063108 334.81933498 C-176.90717728 335.71453574 -176.90804376 336.6097365 -176.9089365 337.53206456 C-176.89290987 340.93296984 -176.84878904 343.74949912 -175.7658689 346.99825954 C-175.66107528 349.16399434 -175.58182915 351.33099442 -175.5158689 353.49825954 C-174.17887821 378.2067003 -162.72580671 400.24833867 -144.89477515 417.14279079 C-117.87385737 440.69313198 -86.42301191 443.14307539 -51.96264625 443.15939236 C-49.66959023 443.16402866 -47.37653498 443.1690544 -45.0834806 443.17443752 C-38.88222236 443.18748944 -32.68097491 443.19399289 -26.4797051 443.19844818 C-22.59202503 443.20139195 -18.70434783 443.20549924 -14.81666923 443.20995235 C-4.00918095 443.22205023 6.79830415 443.23243471 17.60579896 443.23582745 C18.29537408 443.23604701 18.98494919 443.23626658 19.69542053 443.2364928 C20.3864605 443.23671108 21.07750047 443.23692935 21.78948104 443.23715425 C23.18932533 443.23759768 24.58916962 443.23804424 25.98901391 443.23849392 C26.68335571 443.23871535 27.37769751 443.23893678 28.09307997 443.23916492 C39.30963315 443.2431015 50.52612092 443.26052512 61.74264891 443.28385344 C73.31565152 443.30772459 84.8886183 443.31977992 96.46164572 443.32119536 C102.93624707 443.32223532 109.41075607 443.32796779 115.88533425 443.34601498 C178.73803391 444.84122339 178.73803391 444.84122339 233.2341311 416.99825954 C233.99467797 416.34083767 234.75522485 415.68341579 235.5388186 415.00607204 C254.19120173 397.55223562 261.59912089 374.6786522 264.2341311 349.99825954 C264.35915701 348.90136523 264.35915701 348.90136523 264.4867087 347.78231144 C265.11420041 342.01467145 265.37883666 336.34167303 265.36784387 330.54269314 C265.37010942 329.64594498 265.37237498 328.74919682 265.37470919 327.82527447 C265.3809905 324.84906853 265.38022359 321.87290883 265.37939477 318.89669704 C265.38239018 316.7502426 265.38579359 314.60378868 265.38957238 312.45733547 C265.39838395 306.64231487 265.40074948 300.827309 265.40138817 295.01228237 C265.402101 291.36734777 265.40423988 287.72241686 265.40688539 284.07748318 C265.41613385 271.32613801 265.42022145 258.57480327 265.41943383 245.82345486 C265.41883521 233.99834527 265.42934591 222.17328162 265.4451775 210.34818363 C265.45833271 200.15317797 265.46361431 189.95818716 265.46297842 179.7631731 C265.4627255 173.69379339 265.46546078 167.62445442 265.47615647 161.55508327 C266.67455339 118.29516219 266.67455339 118.29516219 259.2341311 75.99825954 C258.97116235 75.04693142 258.7081936 74.09560329 258.4372561 73.11544704 C254.50262549 60.38357629 245.37978621 49.40178087 236.2341311 39.99825954 C235.65147485 39.36532986 235.0688186 38.73240017 234.4685061 38.08029079 C227.81443462 31.03754692 219.93365464 26.17918272 211.3591311 21.81075954 C210.73594995 21.48986355 210.11276879 21.16896755 209.47070336 20.83834743 C199.73212284 16.03295536 189.8120961 13.38562644 179.03797936 12.27252102 C177.91327046 12.1506506 176.78856156 12.02878018 175.62977058 11.90321672 C163.87343748 10.71942265 152.17772699 10.57495337 140.37255883 10.61007595 C138.01522606 10.60599531 135.65789521 10.6006452 133.30056787 10.59414577 C126.98446559 10.58064427 120.66851279 10.58569851 114.35240841 10.59528303 C108.36871048 10.60218577 102.38502517 10.59687245 96.4013275 10.59250145 C83.8300067 10.58400306 71.25875217 10.5936939 58.68744225 10.60990255 C47.9624936 10.62330376 37.23764245 10.62096838 26.51269555 10.60714626 C13.97642176 10.59099667 1.44020561 10.58482326 -11.09607714 10.59398305 C-17.70230543 10.59868137 -24.30847987 10.59939329 -30.91470504 10.58937359 C-37.12928816 10.58060327 -43.34369012 10.58690632 -49.558254 10.60405636 C-51.81664012 10.60796797 -54.07504194 10.60698081 -56.33342147 10.60026836 C-76.9091923 10.5448272 -98.57310957 10.80281122 -117.7658689 18.99825954 Z " fill="#070707" transform="translate(211.76586890220642,21.00174045562744)"/>
<path d="M0 0 C8.19244879 5.67771348 14.07514049 13.0580072 16 23 C17.13888759 34.56784398 14.79700449 44.76500693 7.4375 53.9375 C0.13496044 61.49041235 -9.37168636 65.09687793 -19.6875 65.3125 C-26.07967734 65.26603557 -30.54164445 64.26142406 -36 61 C-37.546875 60.13375 -37.546875 60.13375 -39.125 59.25 C-46.69327962 53.32699856 -51.53452642 46.36007227 -54 37 C-55.03372534 28.2042668 -54.65161321 20.63962864 -50 13 C-49.4225 11.96875 -48.845 10.9375 -48.25 9.875 C-35.98742277 -5.79384868 -17.6495488 -9.57415321 0 0 Z " fill="#FBF9F7" transform="translate(274,219)"/>
<path d="M0 0 C7.85240243 5.9589977 12.89220966 12.24967735 15 22 C16.1350707 34.22849497 13.66623124 43.41721095 6 53 C-0.02968531 59.65038821 -8.71907564 63.43070374 -17.62890625 64.23828125 C-27.78748518 64.49528924 -35.42299233 62.51798622 -43.3125 55.9375 C-50.1617026 49.36095674 -55.03471504 41.10857133 -55.29248047 31.50390625 C-55.36157599 24.15618766 -55.09432254 18.35193965 -51 12 C-50.57589844 11.31679687 -50.15179688 10.63359375 -49.71484375 9.9296875 C-44.59610972 2.42981535 -37.71486947 -3.36916763 -28.79296875 -5.5546875 C-17.72790647 -7.31890722 -9.4020188 -6.28129222 0 0 Z " fill="#626160" transform="translate(275,114)"/>
<path d="M0 0 C9.46665005 5.2240711 16.23496694 12.38729567 19.578125 22.80078125 C21.67156323 33.71379721 20.10703386 42.71338659 14 52 C8.20333152 60.46126609 0.02257647 65.11714604 -10 67 C-20.08706602 68.09409975 -27.93849839 66.0113818 -36.25 60.25 C-43.06361634 54.75514811 -47.95146372 47.55091268 -50 39 C-51.12525092 28.3560449 -50.29860121 19.78114798 -43.859375 11.12109375 C-32.88176088 -1.84146632 -16.11202868 -8.025842 0 0 Z " fill="#FBF9F7" transform="translate(270,323)"/>
<path d="M0 0 C9.35476396 5.09826695 16.04025433 11.73743909 19.34375 22.00390625 C21.71890633 32.84762594 20.04779346 42.37072495 14.25 51.6875 C8.18992673 60.16570469 1.15077123 64.36997658 -9 67 C-17.46579628 68.04572134 -24.68724072 67.53504451 -32 63 C-32.68578125 62.5875 -33.3715625 62.175 -34.078125 61.75 C-41.81620394 56.55190117 -47.33000161 48.7505985 -49.55078125 39.68359375 C-51.4836277 28.13693713 -49.42652707 19.6043502 -43 10 C-32.27149616 -2.35693746 -15.17654978 -7.54556415 0 0 Z " fill="#FBF9F7" transform="translate(164,217)"/>
<path d="M0 0 C8.18098679 5.0631065 13.99780143 11.3699493 16.96875 20.6171875 C18.96095682 30.05954055 18.87938794 39.46272513 13.62890625 47.74609375 C12.97535156 48.79023438 12.97535156 48.79023438 12.30859375 49.85546875 C6.15376024 58.80183877 -1.81278358 63.43033055 -12.37109375 65.74609375 C-21.70085591 66.78532883 -29.7224305 65.48224082 -37.49609375 60.12109375 C-46.15553574 53.10039079 -51.24581073 44.45972737 -52.85546875 33.42578125 C-53.41563867 23.79516762 -50.71510709 16.61068377 -45.37109375 8.74609375 C-33.29435723 -4.68850412 -16.2890385 -8.61413733 0 0 Z " fill="#636160" transform="translate(166.37109375,112.25390625)"/>
<path d="M0 0 C7.27839978 5.30995109 13.747585 12.38026162 15.52734375 21.45703125 C16.4784817 32.50079973 15.62773105 41.70412236 8.90234375 50.70703125 C2.03892637 58.69971292 -6.24429087 63.7698275 -16.80078125 64.7734375 C-27.03407503 65.11676229 -34.31874352 63.35831707 -42.22265625 56.76953125 C-51.01404919 48.367138 -54.40404347 40.48495065 -54.78515625 28.45703125 C-54.563914 18.20180208 -50.95095573 11.02534974 -43.80859375 3.765625 C-31.34564043 -7.5876133 -14.38733103 -8.97787639 0 0 Z " fill="#FBF9F7" transform="translate(380.47265625,219.54296875)"/>
<path d="M0 0 C7.73851183 4.80764689 12.46160293 10.22441964 15.6640625 18.7109375 C16.01210938 19.31550781 16.36015625 19.92007812 16.71875 20.54296875 C19.94901714 27.95122603 17.78100065 37.59419368 15.0546875 44.8515625 C10.25574209 54.71905698 3.16120428 60.95494404 -7.0859375 64.5234375 C-16.73321321 67.09801721 -25.53976873 66.49534011 -34.3359375 61.7109375 C-42.23228993 56.94492478 -47.74796113 50.20877628 -51.3359375 41.7109375 C-53.71210907 31.88831276 -53.26797481 21.6362061 -48.3359375 12.7109375 C-36.68965256 -3.28268366 -18.17608336 -10.03028011 0 0 Z " fill="#606062" transform="translate(378.3359375,324.2890625)"/>
<path d="M0 0 C8.11660021 5.774836 14.11781252 13.01136151 16 23 C16.85852648 35.33306314 14.77402968 44.30532769 7 54 C0.64474479 60.85818908 -7.50101814 64.43926748 -16.76171875 65.23828125 C-26.62560512 65.4885 -34.39031402 63.04560733 -42.1171875 56.8203125 C-50.38702784 48.82498969 -54.01509268 39.78969662 -54.4375 28.4375 C-54.18479981 19.07660601 -50.27547013 11.83205285 -44 5 C-31.38012154 -6.68333831 -15.23041769 -9.12971817 0 0 Z " fill="#606062" transform="translate(168,325)"/>
<path d="M0 0 C4.65368277 3.54631008 8.46471006 6.93694757 11.23828125 12.1640625 C11.60695313 12.78410156 11.975625 13.40414062 12.35546875 14.04296875 C16.5133778 21.828295 16.45438781 30.18194853 14.390625 38.63671875 C11.11145931 48.14074135 6.19319813 55.37358557 -2.82421875 60.1015625 C-12.57333348 64.39176473 -22.02278455 65.94143727 -32.38671875 62.7265625 C-41.91157519 58.79566937 -48.00875548 51.81632937 -52.703125 42.83984375 C-56.012289 34.47535172 -56.12296363 23.7106598 -52.859375 15.31640625 C-48.41941704 6.61029651 -40.98416273 -0.680194 -32.07421875 -4.7734375 C-21.19922036 -8.23957245 -9.36434815 -6.22523852 0 0 Z " fill="#636160" transform="translate(380.76171875,113.8359375)"/>
<path d="M0 0 C0.66 0 1.32 0 2 0 C5.08054793 10.42841226 2.76553743 21.55262556 0.6875 31.9375 C0.47464355 33.00315186 0.26178711 34.06880371 0.04248047 35.16674805 C-1.19168684 41.02100183 -2.72833473 46.46406499 -5 52 C-5.33 52 -5.66 52 -6 52 C-6 48.7 -6 45.4 -6 42 C-5.01 41.505 -5.01 41.505 -4 41 C-4.66 40.67 -5.32 40.34 -6 40 C-5.79503906 39.40832031 -5.59007812 38.81664062 -5.37890625 38.20703125 C-5.10949219 37.41683594 -4.84007812 36.62664062 -4.5625 35.8125 C-4.29566406 35.03519531 -4.02882813 34.25789063 -3.75390625 33.45703125 C-2.9591096 31.01605579 -2.9591096 31.01605579 -2.5078125 28.51171875 C-1.98070666 25.90457217 -1.18002453 23.51228822 -0.3125 21 C0.91523509 17.07414374 0.91523509 17.07414374 0.1875 13.0625 C-0.204375 12.381875 -0.59625 11.70125 -1 11 C-1 7.14681652 -0.814709 3.76802913 0 0 Z " fill="#171717" transform="translate(483,357)"/>
<path d="M0 0 C0.99 0.33 1.98 0.66 3 1 C1.33333333 4.33333333 -0.33333333 7.66666667 -2 11 C-2.66 11 -3.32 11 -4 11 C-4 11.66 -4 12.32 -4 13 C-4.66 13 -5.32 13 -6 13 C-6.0825 13.556875 -6.165 14.11375 -6.25 14.6875 C-7.58386068 18.80023708 -10.74951117 22.19275965 -14 25 C-14.66 25 -15.32 25 -16 25 C-16.33 25.99 -16.66 26.98 -17 28 C-17.66 28 -18.32 28 -19 28 C-18.67 25.69 -18.34 23.38 -18 21 C-16.68 21.33 -15.36 21.66 -14 22 C-13.67 20.35 -13.34 18.7 -13 17 C-12.34 17 -11.68 17 -11 17 C-10.34 15.02 -9.68 13.04 -9 11 C-8.01 11 -7.02 11 -6 11 C-6 10.01 -6 9.02 -6 8 C-5.34 7.67 -4.68 7.34 -4 7 C-3.67 6.01 -3.34 5.02 -3 4 C-2.67 3.01 -2.34 2.02 -2 1 C-1.34 0.67 -0.68 0.34 0 0 Z " fill="#363636" transform="translate(468,422)"/>
<path d="M0 0 C2.475 0.495 2.475 0.495 5 1 C4.34 2.98 3.68 4.96 3 7 C3.99 7.33 4.98 7.66 6 8 C5.855625 8.55429687 5.71125 9.10859375 5.5625 9.6796875 C5.376875 10.40414063 5.19125 11.12859375 5 11.875 C4.814375 12.59429687 4.62875 13.31359375 4.4375 14.0546875 C3.92686035 15.99289317 3.92686035 15.99289317 4 18 C3.34 18 2.68 18 2 18 C2 18.99 2 19.98 2 21 C2.66 21.33 3.32 21.66 4 22 C4 22.66 4 23.32 4 24 C2.68 24.33 1.36 24.66 0 25 C0 16.75 0 8.5 0 0 Z " fill="#111111" transform="translate(25,279)"/>
<path d="M0 0 C-1.04729212 3.06896361 -1.90028514 3.94223318 -4.7578125 5.59765625 C-6.42457031 6.32275391 -6.42457031 6.32275391 -8.125 7.0625 C-9.29289062 7.57167969 -10.46078125 8.08085937 -11.6640625 8.60546875 C-13.31535156 9.29576172 -13.31535156 9.29576172 -15 10 C-15.81210937 10.34675781 -16.62421875 10.69351562 -17.4609375 11.05078125 C-21.07407031 12.51126214 -24.09272493 13.36630704 -28 13 C-27.67 12.01 -27.34 11.02 -27 10 C-26.34 10 -25.68 10 -25 10 C-24.67 9.34 -24.34 8.68 -24 8 C-21.96875 7.3671875 -21.96875 7.3671875 -19.5 6.875 C-18.6853125 6.70742188 -17.870625 6.53984375 -17.03125 6.3671875 C-15 6 -15 6 -14 6 C-13.401875 5.505 -12.80375 5.01 -12.1875 4.5 C-10 3 -10 3 -6 3 C-6 2.34 -6 1.68 -6 1 C-4 0 -4 0 0 0 Z " fill="#171717" transform="translate(435,460)"/>
<path d="M0 0 C8.0704358 0.61458229 16.01385781 1.69225335 24 3 C23.67 3.99 23.34 4.98 23 6 C19 6 15 6 11 6 C9.7625 6.3403125 9.7625 6.3403125 8.5 6.6875 C7.675 6.790625 6.85 6.89375 6 7 C4.375 5.6875 4.375 5.6875 3 4 C2.01 3.34 1.02 2.68 0 2 C0 1.34 0 0.68 0 0 Z " fill="#151515" transform="translate(384,23)"/>
<path d="M0 0 C3.375 0.6875 3.375 0.6875 7 2 C8.4375 4.625 8.4375 4.625 9 7 C8.01 7.495 8.01 7.495 7 8 C7.99 8 8.98 8 10 8 C10.33 8.66 10.66 9.32 11 10 C12.32 9.67 13.64 9.34 15 9 C15 9.66 15 10.32 15 11 C15.99 11.33 16.98 11.66 18 12 C18.70211894 13.65204456 19.36971413 15.31923769 20 17 C20.66 17.33 21.32 17.66 22 18 C22 18.66 22 19.32 22 20 C17.63285124 18.55498754 14.45549602 16.19681894 11 13.25 C9.989375 12.40953125 8.97875 11.5690625 7.9375 10.703125 C4.93097159 7.93647917 2.4677814 5.24803581 0 2 C0 1.34 0 0.68 0 0 Z " fill="#202020" transform="translate(54,440)"/>
<path d="M0 0 C0.99 0 1.98 0 3 0 C3 6.27 3 12.54 3 19 C1.02 18.01 -0.96 17.02 -3 16 C-3 14.35 -3 12.7 -3 11 C-2.34 11 -1.68 11 -1 11 C-1 10.01 -1 9.02 -1 8 C-0.34 7.67 0.32 7.34 1 7 C0.4740625 5.824375 0.4740625 5.824375 -0.0625 4.625 C-0.371875 3.75875 -0.68125 2.8925 -1 2 C-0.67 1.34 -0.34 0.68 0 0 Z " fill="#131313" transform="translate(484,274)"/>
<path d="M0 0 C6.95207573 1.68535169 10.96326722 8.54429449 15 14 C14.01 14.33 13.02 14.66 12 15 C10 14 10 14 9 11 C8.236875 10.9175 7.47375 10.835 6.6875 10.75 C4 10 4 10 2.25 8.3125 C0.75684832 5.5501694 0.35262924 3.10313728 0 0 Z " fill="#202020" transform="translate(448,48)"/>
<path d="M0 0 C0.89267578 0.00322266 1.78535156 0.00644531 2.70507812 0.00976562 C4.09823242 0.02233398 4.09823242 0.02233398 5.51953125 0.03515625 C6.45990234 0.03966797 7.40027344 0.04417969 8.36914062 0.04882812 C10.69016837 0.06060999 13.01106769 0.07706067 15.33203125 0.09765625 C14.34203125 1.08765625 13.35203125 2.07765625 12.33203125 3.09765625 C12.33203125 2.43765625 12.33203125 1.77765625 12.33203125 1.09765625 C11.67203125 1.09765625 11.01203125 1.09765625 10.33203125 1.09765625 C10.33203125 2.41765625 10.33203125 3.73765625 10.33203125 5.09765625 C9.67203125 4.74703125 9.01203125 4.39640625 8.33203125 4.03515625 C4.26275055 2.76350603 1.53583926 3.4196227 -2.66796875 4.09765625 C-5.66796875 4.09765625 -5.66796875 4.09765625 -7.66796875 3.09765625 C-7.66796875 2.43765625 -7.66796875 1.77765625 -7.66796875 1.09765625 C-4.78531726 0.13677242 -2.99134604 -0.01905316 0 0 Z " fill="#3C3C3C" transform="translate(135.66796875,21.90234375)"/>
<path d="M0 0 C6.75 1.875 6.75 1.875 9 3 C9 3.66 9 4.32 9 5 C9.5775 5.2475 10.155 5.495 10.75 5.75 C13.3002997 7.16683317 15.01785701 8.87627537 17 11 C14.03 10.505 14.03 10.505 11 10 C11 9.34 11 8.68 11 8 C10.319375 7.896875 9.63875 7.79375 8.9375 7.6875 C5.37084011 6.85274981 2.33777806 5.50527246 -1 4 C-0.67 2.68 -0.34 1.36 0 0 Z " fill="#1F1F1F" transform="translate(78,459)"/>
<path d="M0 0 C2.29013653 3.4352048 2.17842973 4.985331 2 9 C2.99 9.33 3.98 9.66 5 10 C4.67 11.32 4.34 12.64 4 14 C4.66 14 5.32 14 6 14 C6.33 15.98 6.66 17.96 7 20 C6.34 20 5.68 20 5 20 C5.66 21.98 6.32 23.96 7 26 C6.34 26.66 5.68 27.32 5 28 C3.15618497 23.01368282 2.21022201 18.09939889 1.375 12.875 C1.2409375 12.07707031 1.106875 11.27914063 0.96875 10.45703125 C0.38240932 6.87317344 0 3.65548975 0 0 Z " fill="#2D2D2D" transform="translate(26,371)"/>
<path d="M0 0 C0.99 0.33 1.98 0.66 3 1 C2.9278125 1.83144531 2.855625 2.66289062 2.78125 3.51953125 C2.6884375 4.60621094 2.595625 5.69289062 2.5 6.8125 C2.4071875 7.89144531 2.314375 8.97039062 2.21875 10.08203125 C1.96262162 13.01090811 1.96262162 13.01090811 2 16 C1.01 16.66 0.02 17.32 -1 18 C-2 17 -2 17 -2.09765625 13.62109375 C-2.09098369 12.22652923 -2.07902532 10.83198257 -2.0625 9.4375 C-2.05798828 8.72658203 -2.05347656 8.01566406 -2.04882812 7.28320312 C-2.03700864 5.52209987 -2.01907263 3.76103964 -2 2 C-1.34 2 -0.68 2 0 2 C0 1.34 0 0.68 0 0 Z " fill="#181818" transform="translate(27,237)"/>
<path d="M0 0 C0.66 0.33 1.32 0.66 2 1 C2.625 4.0625 2.625 4.0625 3 7 C2.01 7 1.02 7 0 7 C-2.31141816 11.33256519 -4.14056571 15.12987235 -5 20 C-5.66 20.66 -6.32 21.32 -7 22 C-6.40154947 13.92091784 -3.66830598 7.17211394 0 0 Z " fill="#252525" transform="translate(37,80)"/>
<path d="M0 0 C0.33 0.99 0.66 1.98 1 3 C1.66 3 2.32 3 3 3 C3.33 6.3 3.66 9.6 4 13 C4.66 13 5.32 13 6 13 C5.67 13.99 5.34 14.98 5 16 C2 15 2 15 1.015625 13.14453125 C-0.549808 8.37635013 -1.40843329 4.9935362 0 0 Z " fill="#222222" transform="translate(33,398)"/>
<path d="M0 0 C1.65 0 3.3 0 5 0 C5 0.99 5 1.98 5 3 C3.02 3.99 3.02 3.99 1 5 C1 5.66 1 6.32 1 7 C0.360625 7.12375 -0.27875 7.2475 -0.9375 7.375 C-1.9584375 7.684375 -1.9584375 7.684375 -3 8 C-3.33 8.66 -3.66 9.32 -4 10 C-4.33 8.35 -4.66 6.7 -5 5 C-4.01 4.67 -3.02 4.34 -2 4 C-2 3.34 -2 2.68 -2 2 C-1.34 2 -0.68 2 0 2 C0 1.34 0 0.68 0 0 Z " fill="#2A2A2A" transform="translate(443,449)"/>
<path d="M0 0 C5.61 0 11.22 0 17 0 C16.67 0.66 16.34 1.32 16 2 C15.01 2 14.02 2 13 2 C12.67 2.66 12.34 3.32 12 4 C11.278125 3.79375 10.55625 3.5875 9.8125 3.375 C6.55358415 2.94047789 4.91695496 3.58319331 2 5 C1.34 3.35 0.68 1.7 0 0 Z " fill="#202020" transform="translate(348,22)"/>
<path d="M0 0 C2.475 0.495 2.475 0.495 5 1 C4.77183594 1.53109375 4.54367188 2.0621875 4.30859375 2.609375 C4.02113281 3.31578125 3.73367187 4.0221875 3.4375 4.75 C3.14746094 5.44609375 2.85742188 6.1421875 2.55859375 6.859375 C1.91624313 9.32097039 2.31772079 10.59433404 3 13 C2.67 13.66 2.34 14.32 2 15 C1.34 15 0.68 15 0 15 C0 10.05 0 5.1 0 0 Z " fill="#282828" transform="translate(25,279)"/>
<path d="M0 0 C0.66 0 1.32 0 2 0 C2 4.95 2 9.9 2 15 C1.34 13.68 0.68 12.36 0 11 C-0.33 10.67 -0.66 10.34 -1 10 C-3 7 -3 7 -2.75 4.4375 C-2 2 -2 2 0 0 Z " fill="#202020" transform="translate(485,246)"/>
<path d="M0 0 C-0.99 1.485 -0.99 1.485 -2 3 C-3.32 3 -4.64 3 -6 3 C-6 3.66 -6 4.32 -6 5 C-7.65 5.33 -9.3 5.66 -11 6 C-11 5.34 -11 4.68 -11 4 C-11.66 3.34 -12.32 2.68 -13 2 C-8.73059252 -0.4631197 -4.74855345 -1.58285115 0 0 Z " fill="#212121" transform="translate(118,25)"/>
<path d="M0 0 C3 3.75 3 3.75 3 6 C-2.94 5.01 -2.94 5.01 -9 4 C-9 3.01 -9 2.02 -9 1 C-7.68 1 -6.36 1 -5 1 C-3.32774271 0.69595322 -1.65919896 0.36871088 0 0 Z " fill="#131313" transform="translate(122,471)"/>
<path d="M0 0 C3.375 0.6875 3.375 0.6875 7 2 C8.4375 4.625 8.4375 4.625 9 7 C8.01 7.495 8.01 7.495 7 8 C7.99 8 8.98 8 10 8 C10.33 8.99 10.66 9.98 11 11 C5.84563204 9.63560848 2.93351599 6.27426385 0 2 C0 1.34 0 0.68 0 0 Z " fill="#343434" transform="translate(54,440)"/>
<path d="M0 0 C0.66 0.33 1.32 0.66 2 1 C1.46515599 6.34844008 -0.46690767 10.35796103 -3 15 C-3.66 14.01 -4.32 13.02 -5 12 C-4.15955106 8.56816682 -3.51471866 6.51471866 -1 4 C-0.3574765 1.93125966 -0.3574765 1.93125966 0 0 Z " fill="#333333" transform="translate(475,408)"/>
<path d="M0 0 C0.66 0.33 1.32 0.66 2 1 C1.04882866 2.1725131 0.08882991 3.33787015 -0.875 4.5 C-1.40867187 5.1496875 -1.94234375 5.799375 -2.4921875 6.46875 C-2.98976563 6.9740625 -3.48734375 7.479375 -4 8 C-4.66 8 -5.32 8 -6 8 C-6.33 8.99 -6.66 9.98 -7 11 C-7.66 11 -8.32 11 -9 11 C-8.67 8.69 -8.34 6.38 -8 4 C-6.02 4.495 -6.02 4.495 -4 5 C-4 4.01 -4 3.02 -4 2 C-2.125 0.9375 -2.125 0.9375 0 0 Z " fill="#2C2C2C" transform="translate(458,439)"/>
<path d="M0 0 C0.33 0 0.66 0 1 0 C1 1.65 1 3.3 1 5 C1.66 5 2.32 5 3 5 C3.33 6.98 3.66 8.96 4 11 C2.68 10.67 1.36 10.34 0 10 C-0.33 11.32 -0.66 12.64 -1 14 C-2.13732426 10.59598052 -1.83989957 8.22543336 -1.0625 4.75 C-0.86785156 3.85796875 -0.67320313 2.9659375 -0.47265625 2.046875 C-0.31667969 1.37140625 -0.16070313 0.6959375 0 0 Z " fill="#242424" transform="translate(28,110)"/>
<path d="M0 0 C0.66 0 1.32 0 2 0 C2 1.65 2 3.3 2 5 C1.34 5 0.68 5 0 5 C-0.04125 5.61875 -0.0825 6.2375 -0.125 6.875 C-0.41375 7.57625 -0.7025 8.2775 -1 9 C-4.0625 10.25 -4.0625 10.25 -7 11 C-7 10.34 -7 9.68 -7 9 C-6.34 9 -5.68 9 -5 9 C-4.34 7.02 -3.68 5.04 -3 3 C-2.01 3 -1.02 3 0 3 C0 2.01 0 1.02 0 0 Z " fill="#222222" transform="translate(462,430)"/>
<path d="M0 0 C1.98 0.495 1.98 0.495 4 1 C4.125 8.75 4.125 8.75 3 11 C2.34 10.67 1.68 10.34 1 10 C1.33 9.34 1.66 8.68 2 8 C1.34 8 0.68 8 0 8 C-1.09658936 4.71023192 -0.79953138 3.28696233 0 0 Z " fill="#171717" transform="translate(483,233)"/>
<path d="M0 0 C0.66 0 1.32 0 2 0 C2 0.66 2 1.32 2 2 C2.66 2 3.32 2 4 2 C4 2.66 4 3.32 4 4 C5.32 4.66 6.64 5.32 8 6 C8 6.66 8 7.32 8 8 C8.66 8 9.32 8 10 8 C10.33 9.32 10.66 10.64 11 12 C10.01 12 9.02 12 8 12 C5.95703125 9.62890625 5.95703125 9.62890625 3.8125 6.5625 C3.09707031 5.55316406 2.38164063 4.54382813 1.64453125 3.50390625 C0 1 0 1 0 0 Z " fill="#3B3B3B" transform="translate(43,427)"/>
<path d="M0 0 C0.99 0 1.98 0 3 0 C3 0.66 3 1.32 3 2 C3.78375 2.144375 4.5675 2.28875 5.375 2.4375 C8 3 8 3 10 4 C9.67 4.66 9.34 5.32 9 6 C7.68 5.67 6.36 5.34 5 5 C5 5.99 5 6.98 5 8 C4.34 7.67 3.68 7.34 3 7 C3.33 6.34 3.66 5.68 4 5 C2.68 4.67 1.36 4.34 0 4 C0 2.68 0 1.36 0 0 Z " fill="#212121" transform="translate(419,30)"/>
<path d="M0 0 C2.475 0.495 2.475 0.495 5 1 C4.67 3.97 4.34 6.94 4 10 C2.68 9.34 1.36 8.68 0 8 C0 5.36 0 2.72 0 0 Z " fill="#171717" transform="translate(25,345)"/>
<path d="M0 0 C0.66 0 1.32 0 2 0 C2 0.66 2 1.32 2 2 C2.99 1.67 3.98 1.34 5 1 C5.3125 3.3125 5.3125 3.3125 5 6 C2.5 7.8125 2.5 7.8125 0 9 C0 6.03 0 3.06 0 0 Z " fill="#1D1D1D" transform="translate(25,165)"/>
<path d="M0 0 C0.33 0 0.66 0 1 0 C0.95875 0.9075 0.9175 1.815 0.875 2.75 C0.99758168 5.93712376 1.54151217 7.27748938 3 10 C2.67 10.66 2.34 11.32 2 12 C1.34 12 0.68 12 0 12 C0.33 12.99 0.66 13.98 1 15 C0.34 15 -0.32 15 -1 15 C-1.02685412 12.68756208 -1.04632841 10.3750373 -1.0625 8.0625 C-1.07410156 6.77472656 -1.08570312 5.48695313 -1.09765625 4.16015625 C-1 1 -1 1 0 0 Z " fill="#262626" transform="translate(26,185)"/>
<path d="M0 0 C0 2.83967231 -0.40267181 5.23735711 -1 8 C-1.99 7.67 -2.98 7.34 -4 7 C-4.33 8.65 -4.66 10.3 -5 12 C-5.66 12 -6.32 12 -7 12 C-7 10.35 -7 8.7 -7 7 C-6.360625 6.7525 -5.72125 6.505 -5.0625 6.25 C-2.80939427 5.19851273 -2.80939427 5.19851273 -2.375 2.9375 C-2.189375 1.9784375 -2.189375 1.9784375 -2 1 C-1.34 0.67 -0.68 0.34 0 0 Z " fill="#383838" transform="translate(54,56)"/>
<path d="M0 0 C1.9375 0.6875 1.9375 0.6875 4 2 C5.08835706 4.95411203 5.25203613 6.37831087 4.0625 9.3125 C3.5365625 10.1478125 3.5365625 10.1478125 3 11 C2.896875 10.360625 2.79375 9.72125 2.6875 9.0625 C2.460625 8.381875 2.23375 7.70125 2 7 C1.01 6.67 0.02 6.34 -1 6 C-0.34 6 0.32 6 1 6 C1 5.34 1 4.68 1 4 C0.34 3.67 -0.32 3.34 -1 3 C-0.67 2.01 -0.34 1.02 0 0 Z " fill="#242424" transform="translate(483,146)"/>
<path d="M0 0 C0.66 0 1.32 0 2 0 C3.33257403 9.41002278 3.33257403 9.41002278 2 14 C1.34 14 0.68 14 0 14 C0 9.38 0 4.76 0 0 Z " fill="#212121" transform="translate(26,125)"/>
<path d="M0 0 C0.99 0.33 1.98 0.66 3 1 C2.01 3.31 1.02 5.62 0 8 C-1.65 7.67 -3.3 7.34 -5 7 C-3.625 4.5 -3.625 4.5 -2 2 C-1.34 2 -0.68 2 0 2 C0 1.34 0 0.68 0 0 Z " fill="#262626" transform="translate(60,49)"/>
<path d="M0 0 C1.0725 0.2475 2.145 0.495 3.25 0.75 C3.25 1.41 3.25 2.07 3.25 2.75 C-0.42410785 3.92571451 -3.91929183 3.82366746 -7.75 3.75 C-5.15187156 0.32047046 -4.43092205 -0.2953948 0 0 Z " fill="#181818" transform="translate(375.75,474.25)"/>
<path d="M0 0 C0.33 0 0.66 0 1 0 C1 3.96 1 7.92 1 12 C0.34 12 -0.32 12 -1 12 C-3.3314664 5.74185336 -3.3314664 5.74185336 -1.6875 2.0625 C-1.130625 1.381875 -0.57375 0.70125 0 0 Z " fill="#1D1D1D" transform="translate(486,294)"/>
<path d="M0 0 C0.66 0 1.32 0 2 0 C2 2.64 2 5.28 2 8 C1.01 8.495 1.01 8.495 0 9 C-0.66 8.67 -1.32 8.34 -2 8 C-1.125 1.125 -1.125 1.125 0 0 Z " fill="#1E1E1E" transform="translate(485,184)"/>
<path d="M0 0 C1.32 0 2.64 0 4 0 C5.32 3.3 6.64 6.6 8 10 C7.01 10 6.02 10 5 10 C3.33333333 6.66666667 1.66666667 3.33333333 0 0 Z " fill="#474747" transform="translate(36,415)"/>
<path d="M0 0 C1.98 0.495 1.98 0.495 4 1 C4 4.3 4 7.6 4 11 C3.34 9.68 2.68 8.36 2 7 C1.34 7 0.68 7 0 7 C-0.38133299 5.0085944 -0.71325582 3.00720923 -1 1 C-0.67 0.67 -0.34 0.34 0 0 Z " fill="#1D1D1D" transform="translate(483,262)"/>
<path d="M0 0 C0.33 0.99 0.66 1.98 1 3 C1.99 2.67 2.98 2.34 4 2 C3.649375 2.680625 3.29875 3.36125 2.9375 4.0625 C1.77379397 7.7087789 2.27154898 10.28489978 3 14 C2.01 14.33 1.02 14.66 0 15 C0 10.05 0 5.1 0 0 Z " fill="#1E1E1E" transform="translate(25,220)"/>
<path d="M0 0 C2.29013653 3.4352048 2.17842973 4.985331 2 9 C2.99 9.33 3.98 9.66 5 10 C4.67 11.98 4.34 13.96 4 16 C3.34 15.67 2.68 15.34 2 15 C1.3671875 12.63671875 1.3671875 12.63671875 0.875 9.6875 C0.70742188 8.72199219 0.53984375 7.75648438 0.3671875 6.76171875 C0 4 0 4 0 0 Z " fill="#424242" transform="translate(26,371)"/>
<path d="M0 0 C0.66 0 1.32 0 2 0 C2.16873478 1.43725871 2.33490737 2.87481838 2.5 4.3125 C2.5928125 5.11300781 2.685625 5.91351563 2.78125 6.73828125 C3 9 3 9 3 12 C2.34 12 1.68 12 1 12 C0.67 12.66 0.34 13.32 0 14 C0 9.38 0 4.76 0 0 Z " fill="#2B2B2B" transform="translate(25,142)"/>
<path d="M0 0 C0.66 0 1.32 0 2 0 C2 0.66 2 1.32 2 2 C3.65 2.33 5.3 2.66 7 3 C7 4.32 7 5.64 7 7 C6.01 7 5.02 7 4 7 C4 6.34 4 5.68 4 5 C3.01 5 2.02 5 1 5 C0.67 3.35 0.34 1.7 0 0 Z " fill="#262626" transform="translate(433,37)"/>
<path d="M0 0 C2.97 0 5.94 0 9 0 C9 0.66 9 1.32 9 2 C8.21625 2.12375 7.4325 2.2475 6.625 2.375 C3.85942178 2.79117993 3.85942178 2.79117993 2 5 C1.01 4.34 0.02 3.68 -1 3 C-0.67 2.01 -0.34 1.02 0 0 Z " fill="#1A1A1A" transform="translate(258,22)"/>
<path d="M0 0 C1.12377697 3.30435084 0.89554742 5.0506862 -0.4375 8.25 C-0.72496094 8.95640625 -1.01242187 9.6628125 -1.30859375 10.390625 C-1.53675781 10.92171875 -1.76492188 11.4528125 -2 12 C-2.33 12 -2.66 12 -3 12 C-3 8.7 -3 5.4 -3 2 C-2.01 2 -1.02 2 0 2 C0 1.34 0 0.68 0 0 Z " fill="#363636" transform="translate(480,397)"/>
<path d="M0 0 C0.99 0 1.98 0 3 0 C3 3.96 3 7.92 3 12 C2.67 12 2.34 12 2 12 C2 10.02 2 8.04 2 6 C1.34 6 0.68 6 0 6 C-1.125 2.25 -1.125 2.25 0 0 Z " fill="#232323" transform="translate(484,274)"/>
<path d="M0 0 C1.32 0.33 2.64 0.66 4 1 C4 2.65 4 4.3 4 6 C-0.75 5.25 -0.75 5.25 -3 3 C-2.01 2.67 -1.02 2.34 0 2 C0 1.34 0 0.68 0 0 Z " fill="#1B1B1B" transform="translate(80,35)"/>
<path d="M0 0 C3.3 0 6.6 0 10 0 C7 3 7 3 4.95703125 3.29296875 C2.97135417 3.1953125 0.98567708 3.09765625 -1 3 C-0.67 2.01 -0.34 1.02 0 0 Z " fill="#1C1C1C" transform="translate(327,22)"/>
<path d="M0 0 C3.53372712 1.96318174 6.24479785 4.04070881 9 7 C6.03 6.505 6.03 6.505 3 6 C3 5.34 3 4.68 3 4 C1.68 3.67 0.36 3.34 -1 3 C-0.67 2.01 -0.34 1.02 0 0 Z " fill="#191919" transform="translate(86,463)"/>
<path d="M0 0 C0.99 0.99 1.98 1.98 3 3 C1.25 8.75 1.25 8.75 -1 11 C-2.659214 7.681572 -1.57259528 4.60735024 -1 1 C-0.67 0.67 -0.34 0.34 0 0 Z " fill="#121212" transform="translate(482,370)"/>
<path d="M0 0 C0.33 0 0.66 0 1 0 C0.67 3.96 0.34 7.92 0 12 C-0.99 12.33 -1.98 12.66 -3 13 C-2.45144652 8.428721 -1.58255197 4.32564205 0 0 Z " fill="#303030" transform="translate(485,370)"/>
<path d="M0 0 C0.66 0 1.32 0 2 0 C0.5 10.5 0.5 10.5 -3 14 C-2.48594831 9.03083364 -1.76615118 4.70973649 0 0 Z " fill="#393939" transform="translate(33,88)"/>
<path d="M0 0 C-1.0975223 2.99324263 -1.67682892 3.84610901 -4.625 5.25 C-5.40875 5.4975 -6.1925 5.745 -7 6 C-6.625 3.5625 -6.625 3.5625 -6 1 C-4 0 -4 0 0 0 Z " fill="#181818" transform="translate(71,44)"/>
<path d="M0 0 C2.31 0.33 4.62 0.66 7 1 C7 1.66 7 2.32 7 3 C7.99 3.33 8.98 3.66 10 4 C8.125 5.0625 8.125 5.0625 6 6 C5.34 5.67 4.68 5.34 4 5 C4 4.34 4 3.68 4 3 C2.0399719 1.36323743 2.0399719 1.36323743 0 0 Z " fill="#212121" transform="translate(408,27)"/>
<path d="M0 0 C2.97 0 5.94 0 9 0 C9 0.99 9 1.98 9 3 C8.34 3 7.68 3 7 3 C5.66216607 3.31478446 4.32796291 3.64587656 3 4 C2.67 3.34 2.34 2.68 2 2 C1.34 2 0.68 2 0 2 C0 1.34 0 0.68 0 0 Z " fill="#252525" transform="translate(182,22)"/>
<path d="M0 0 C0 2.64 0 5.28 0 8 C-1.70884005 6.37660195 -3.37446717 4.70680947 -5 3 C-5 2.34 -5 1.68 -5 1 C-3 0 -3 0 0 0 Z " fill="#1B1B1B" transform="translate(487,328)"/>
<path d="M0 0 C2 2 2 2 2.1953125 4.1640625 C2.17210937 4.97617188 2.14890625 5.78828125 2.125 6.625 C2.10695313 7.44226563 2.08890625 8.25953125 2.0703125 9.1015625 C2.03550781 10.04128906 2.03550781 10.04128906 2 11 C1.34 11 0.68 11 0 11 C-0.33 9.68 -0.66 8.36 -1 7 C-0.34 7 0.32 7 1 7 C1 6.34 1 5.68 1 5 C0.01 4.67 -0.98 4.34 -2 4 C-1.34 2.68 -0.68 1.36 0 0 Z " fill="#010101" transform="translate(485,217)"/>
<path d="M0 0 C0.66 0 1.32 0 2 0 C2.33 2.64 2.66 5.28 3 8 C2.34 8 1.68 8 1 8 C-1 5 -1 5 -0.625 2.3125 C-0.41875 1.549375 -0.2125 0.78625 0 0 Z " fill="#1D1D1D" transform="translate(480,99)"/>
<path d="M0 0 C1.2077558 3.62326739 0.54311128 4.64146369 -1 8 C-1.66 8 -2.32 8 -3 8 C-3.33 8.99 -3.66 9.98 -4 11 C-3.56179109 6.44262737 -3.14958831 3.42346555 0 0 Z " fill="#434343" transform="translate(44,68)"/>
<path d="M0 0 C0.66 0.66 1.32 1.32 2 2 C1.34 2 0.68 2 0 2 C-0.33 2.99 -0.66 3.98 -1 5 C-2.65 5.33 -4.3 5.66 -6 6 C-6 5.01 -6 4.02 -6 3 C-4.02 2.01 -2.04 1.02 0 0 Z " fill="#282828" transform="translate(98,27)"/>
<path d="M0 0 C0.66 0.33 1.32 0.66 2 1 C1.67 3.31 1.34 5.62 1 8 C-0.65 8 -2.3 8 -4 8 C-3.67 6.68 -3.34 5.36 -3 4 C-2.34 4 -1.68 4 -1 4 C-0.67 2.68 -0.34 1.36 0 0 Z " fill="#101010" transform="translate(470,415)"/>
<path d="M0 0 C1.32 0.33 2.64 0.66 4 1 C3.38722388 3.96175123 2.74627478 5.38058783 1 8 C0 7 0 7 -0.0625 3.4375 C-0.041875 2.303125 -0.02125 1.16875 0 0 Z " fill="#1E1E1E" transform="translate(26,364)"/>
<path d="M0 0 C0.66 0.33 1.32 0.66 2 1 C2.8125 3.875 2.8125 3.875 3 7 C1.5625 8.875 1.5625 8.875 0 10 C-1.125 2.25 -1.125 2.25 0 0 Z " fill="#292929" transform="translate(25,331)"/>
<path d="M0 0 C1.98 0.495 1.98 0.495 4 1 C4 2.65 4 4.3 4 6 C2.35 5.67 0.7 5.34 -1 5 C-0.67 3.35 -0.34 1.7 0 0 Z " fill="#171717" transform="translate(483,162)"/>
<path d="M0 0 C0.33 0 0.66 0 1 0 C1.33 2.97 1.66 5.94 2 9 C0.68 8.67 -0.64 8.34 -2 8 C-1.67 7.01 -1.34 6.02 -1 5 C-1 4.01 -1 3.02 -1 2 C-0.67 1.34 -0.34 0.68 0 0 Z " fill="#222222" transform="translate(483,109)"/>
<path d="M0 0 C0.66 0.33 1.32 0.66 2 1 C2 1.66 2 2.32 2 3 C2.66 3 3.32 3 4 3 C3.67 3.99 3.34 4.98 3 6 C0.9375 6.6875 0.9375 6.6875 -1 7 C-0.67 4.69 -0.34 2.38 0 0 Z M4 2 C4.66 2 5.32 2 6 2 C5.67 2.66 5.34 3.32 5 4 C4.67 3.34 4.34 2.68 4 2 Z " fill="#0E0E0E" transform="translate(90,30)"/>
<path d="M0 0 C2.31 0 4.62 0 7 0 C5.515 1.485 5.515 1.485 4 3 C4 2.34 4 1.68 4 1 C3.34 1 2.68 1 2 1 C2 2.32 2 3.64 2 5 C1.01 4.67 0.02 4.34 -1 4 C-0.67 2.68 -0.34 1.36 0 0 Z " fill="#202020" transform="translate(144,22)"/>
<path d="M0 0 C-0.6875 1.9375 -0.6875 1.9375 -2 4 C-4.625 4.75 -4.625 4.75 -7 5 C-6.625 3.0625 -6.625 3.0625 -6 1 C-4 0 -4 0 0 0 Z " fill="#303030" transform="translate(435,460)"/>
<path d="M0 0 C0 1.98 0 3.96 0 6 C-1.32 6 -2.64 6 -4 6 C-3.625 3.5625 -3.625 3.5625 -3 1 C-1 0 -1 0 0 0 Z " fill="#212121" transform="translate(487,311)"/>
<path d="M0 0 C0.66 0 1.32 0 2 0 C2.33 2.64 2.66 5.28 3 8 C1.68 7.34 0.36 6.68 -1 6 C-0.67 4.02 -0.34 2.04 0 0 Z " fill="#1D1D1D" transform="translate(483,357)"/>
<path d="M0 0 C0.99 0.33 1.98 0.66 3 1 C3 3.64 3 6.28 3 9 C2.67 8.34 2.34 7.68 2 7 C1.34 6.67 0.68 6.34 0 6 C0.33 5.67 0.66 5.34 1 5 C0.34 4.67 -0.32 4.34 -1 4 C-0.67 2.68 -0.34 1.36 0 0 Z " fill="#191919" transform="translate(484,210)"/>
<path d="M0 0 C1.32 0.99 2.64 1.98 4 3 C3.67 4.32 3.34 5.64 3 7 C2.34 7 1.68 7 1 7 C0.67 7.66 0.34 8.32 0 9 C0 6.03 0 3.06 0 0 Z " fill="#222222" transform="translate(25,202)"/>
<path d="M0 0 C3.3 0.33 6.6 0.66 10 1 C9.67 1.99 9.34 2.98 9 4 C7.68 4 6.36 4 5 4 C5 3.34 5 2.68 5 2 C3.35 1.67 1.7 1.34 0 1 C0 0.67 0 0.34 0 0 Z " fill="#262626" transform="translate(398,25)"/>
<path d="M0 0 C-1.32 0.99 -2.64 1.98 -4 3 C-5.32 2.34 -6.64 1.68 -8 1 C-8 0.34 -8 -0.32 -8 -1 C-4.37673261 -2.2077558 -3.35853631 -1.54311128 0 0 Z " fill="#2B2B2B" transform="translate(136,24)"/>
<path d="M0 0 C0.99 0.33 1.98 0.66 3 1 C3 1.66 3 2.32 3 3 C0.69 3.33 -1.62 3.66 -4 4 C-3.67 3.01 -3.34 2.02 -3 1 C-2.34 1 -1.68 1 -1 1 C-0.67 0.67 -0.34 0.34 0 0 Z " fill="#303030" transform="translate(411,469)"/>
<path d="M0 0 C0.598125 0.20625 1.19625 0.4125 1.8125 0.625 C1.8125 1.285 1.8125 1.945 1.8125 2.625 C-0.5625 3.25 -0.5625 3.25 -3.1875 3.625 C-3.8475 2.965 -4.5075 2.305 -5.1875 1.625 C-2.1875 -0.375 -2.1875 -0.375 0 0 Z " fill="#101010" transform="translate(427.1875,463.375)"/>
<path d="M0 0 C0.66 0.33 1.32 0.66 2 1 C0.02 3.31 -1.96 5.62 -4 8 C-5 5 -5 5 -4 2 C-2.0625 0.75 -2.0625 0.75 0 0 Z " fill="#444444" transform="translate(458,439)"/>
<path d="M0 0 C1.65 0 3.3 0 5 0 C4.67 1.65 4.34 3.3 4 5 C2.68 4.67 1.36 4.34 0 4 C0 2.68 0 1.36 0 0 Z " fill="#202020" transform="translate(483,322)"/>
<path d="M0 0 C1.98 0 3.96 0 6 0 C5.34 1.65 4.68 3.3 4 5 C1.48916886 3.74458443 1.12874554 2.49936512 0 0 Z " fill="#181818" transform="translate(348,22)"/>
<path d="M0 0 C2.64 0 5.28 0 8 0 C8 0.66 8 1.32 8 2 C7.38125 2.144375 6.7625 2.28875 6.125 2.4375 C3.96741678 2.93152225 3.96741678 2.93152225 2 4 C2 3.34 2 2.68 2 2 C1.34 2 0.68 2 0 2 C0 1.34 0 0.68 0 0 Z " fill="#181818" transform="translate(208,22)"/>
<path d="M0 0 C0 0.66 0 1.32 0 2 C-3.375 2.625 -3.375 2.625 -7 3 C-7.66 2.34 -8.32 1.68 -9 1 C-6.04335481 -0.4783226 -3.25770263 -0.06032783 0 0 Z " fill="#1B1B1B" transform="translate(344,476)"/>
<path d="M0 0 C-0.33 2.31 -0.66 4.62 -1 7 C-1.99 6.01 -2.98 5.02 -4 4 C-3.67 3.01 -3.34 2.02 -3 1 C-1 0 -1 0 0 0 Z " fill="#111111" transform="translate(484,382)"/>
<path d="M0 0 C1.32 0.66 2.64 1.32 4 2 C3.01 3.485 3.01 3.485 2 5 C1.01 4.67 0.02 4.34 -1 4 C-0.67 2.68 -0.34 1.36 0 0 Z " fill="#0F0F0F" transform="translate(26,340)"/>
<path d="M0 0 C0.66 0 1.32 0 2 0 C2 0.99 2 1.98 2 3 C2.66 3.33 3.32 3.66 4 4 C4 4.66 4 5.32 4 6 C2.68 6.33 1.36 6.66 0 7 C0 4.69 0 2.38 0 0 Z " fill="#232323" transform="translate(25,297)"/>
<path d="M0 0 C0.99 0.495 0.99 0.495 2 1 C3 4 3 4 3 7 C2.01 7 1.02 7 0 7 C0 4.69 0 2.38 0 0 Z " fill="#2F2F2F" transform="translate(25,176)"/>
<path d="M0 0 C1.98 1.65 3.96 3.3 6 5 C5.01 5.66 4.02 6.32 3 7 C2.34 6.67 1.68 6.34 1 6 C0.375 2.9375 0.375 2.9375 0 0 Z " fill="#3B3B3B" transform="translate(457,56)"/>
<path d="M0 0 C0.99 0.33 1.98 0.66 3 1 C2.67 2.98 2.34 4.96 2 7 C1.67 6.34 1.34 5.68 1 5 C0.34 4.67 -0.32 4.34 -1 4 C-0.67 2.68 -0.34 1.36 0 0 Z " fill="#1A1A1A" transform="translate(441,42)"/>
<path d="M0 0 C2.97 0 5.94 0 9 0 C8.67 0.66 8.34 1.32 8 2 C5.67843403 2.40729228 3.3431213 2.74438677 1 3 C0.67 2.01 0.34 1.02 0 0 Z " fill="#1F1F1F" transform="translate(246,22)"/>
</svg>
